<svg width="13" height="12" viewBox="0 0 13 12" fill="none" xmlns="http://www.w3.org/2000/svg">
<path d="M8.50012 4.5V3C8.50012 1.89543 7.60469 1 6.50012 1C5.39555 1 4.50012 1.89543 4.50012 3V4.5M2.29613 5.17598L1.99613 8.37598C1.91083 9.28583 1.86818 9.74076 2.01915 10.0921C2.15177 10.4008 2.38418 10.656 2.67913 10.8169C3.01489 11 3.47181 11 4.38565 11H8.6146C9.52844 11 9.98536 11 10.3211 10.8169C10.6161 10.656 10.8485 10.4008 10.9811 10.0921C11.1321 9.74076 11.0894 9.28583 11.0041 8.37598L10.7041 5.17598C10.6321 4.40767 10.5961 4.02352 10.4233 3.73308C10.2711 3.47729 10.0463 3.27256 9.77741 3.14492C9.47212 3 9.08628 3 8.3146 3L4.68565 3C3.91397 3 3.52813 3 3.22283 3.14492C2.95396 3.27255 2.72913 3.47729 2.57695 3.73308C2.40417 4.02352 2.36815 4.40767 2.29613 5.17598Z" stroke="white" stroke-linecap="round" stroke-linejoin="round"/>
</svg>
