<svg width="10" height="10" viewBox="0 0 10 10" fill="none" xmlns="http://www.w3.org/2000/svg">
<path d="M6.57605 4.82694C6.68268 5.07549 7.01614 5.13273 7.19004 4.92626C7.2325 4.87584 7.25393 4.82065 7.26454 4.71393C7.27489 4.60976 7.27558 4.44926 7.27234 4.18351L7.26641 3.6968L7.26631 3.68852L7.26354 3.68071L7.21621 3.54716C7.12443 3.28818 7.00451 3.11496 6.79199 3.01018C6.5841 2.90769 6.29382 2.87417 5.87114 2.87393L5.36965 2.87367L5.3578 2.87366L5.34721 2.87897L5.26981 2.91778L5.29201 2.96204L5.26981 2.91779C5.01063 3.04777 5.00413 3.41486 5.26282 3.54671L5.26283 3.54671C5.29939 3.56534 5.33002 3.57412 5.40571 3.57858C5.47892 3.58289 5.60025 3.58349 5.82045 3.58366C5.84574 3.58368 5.87013 3.58368 5.89367 3.58367C6.05629 3.58364 6.17804 3.58362 6.27114 3.5917C6.37865 3.60103 6.43529 3.62052 6.46933 3.65218C6.5027 3.68322 6.52373 3.73487 6.53508 3.83523C6.54495 3.92258 6.5467 4.03706 6.54905 4.19067C6.54939 4.21287 6.54974 4.23589 6.55013 4.25975C6.55246 4.40223 6.55609 4.53541 6.56008 4.63527C6.56207 4.68515 6.56416 4.72702 6.56624 4.75768C6.56727 4.77295 6.56833 4.78591 6.56943 4.79587C6.56997 4.80081 6.57059 4.80555 6.57129 4.80973L6.57131 4.80985C6.57177 4.81256 6.57301 4.81986 6.57605 4.82694ZM6.57605 4.82694L6.622 4.80723M6.57605 4.82694C6.57605 4.82695 6.57606 4.82696 6.57606 4.82696L6.622 4.80723M6.622 4.80723C6.61462 4.79004 6.60477 4.54331 6.60013 4.25893C6.59411 3.89109 6.59741 3.70977 6.5084 3.62041C6.4161 3.52776 6.22456 3.53398 5.82049 3.53366C5.37861 3.53332 5.34246 3.53117 5.28553 3.50216C5.06457 3.38954 5.06848 3.0747 5.29223 2.96248L5.36963 2.92367L5.87112 2.92393C6.71588 2.9244 6.99041 3.05974 7.16908 3.56386L7.21641 3.69741L7.22234 4.18412C7.22884 4.71724 7.21921 4.814 7.1518 4.89405C7.0031 5.0706 6.71472 5.02335 6.622 4.80723ZM6.06606 4.56898L6.06606 4.56898C6.14893 4.27727 5.85437 4.02079 5.57764 4.14531C5.57015 4.14868 5.56294 4.1536 5.55774 4.15735C5.55176 4.16165 5.54496 4.16694 5.5376 4.17294C5.52283 4.18496 5.50422 4.20106 5.48255 4.22041C5.43914 4.25918 5.382 4.3123 5.31602 4.37493C5.18397 4.50026 5.01545 4.6646 4.84824 4.83048C4.68103 4.99635 4.51489 5.164 4.38761 5.29593C4.32401 5.36186 4.26988 5.41911 4.2301 5.46287C4.21024 5.48472 4.19366 5.50353 4.18116 5.51854C4.17005 5.53189 4.15848 5.54649 4.15261 5.55815C4.07757 5.70731 4.12573 5.86483 4.22474 5.96407C4.32376 6.06332 4.4808 6.11132 4.62893 6.03464C4.64114 6.02832 4.65639 6.01655 4.67138 6.00424C4.68763 5.99087 4.70767 5.97336 4.73071 5.95254C4.77685 5.91084 4.8364 5.85461 4.90447 5.78886C5.04068 5.6573 5.21203 5.48659 5.3805 5.31538C5.54897 5.14418 5.71485 4.9722 5.84009 4.83808C5.90266 4.77107 5.95538 4.71319 5.9933 4.66945C6.01221 4.64765 6.02786 4.62887 6.03932 4.61398C6.04503 4.60658 6.05014 4.59957 6.05423 4.59328C6.05738 4.58844 6.06313 4.57931 6.06606 4.56898ZM4.60667 0.976608C1.51272 1.33896 -0.0564638 4.66965 1.65365 7.24988C3.58483 10.1636 8.01046 9.39473 8.91698 5.99245C9.63275 3.30601 7.35532 0.654715 4.60667 0.976608ZM5.47925 1.70115C7.31412 1.96471 8.60237 3.71674 8.28798 5.51767C7.59306 9.49839 1.80976 9.09896 1.67877 5.06352C1.61281 3.03166 3.44544 1.40904 5.47925 1.70115ZM3.07947 5.13712C3.03569 5.15891 2.99551 5.18158 2.96371 5.21585C2.93083 5.25129 2.91035 5.2952 2.89738 5.35388C2.87251 5.46639 2.87237 5.64999 2.87691 5.97363C2.88256 6.37637 2.92881 6.66431 3.04558 6.86929C3.16455 7.07812 3.35241 7.19388 3.62164 7.26255C3.66749 7.27424 3.76473 7.28146 3.87943 7.28589C3.99654 7.29041 4.13821 7.29217 4.27724 7.29134C4.41625 7.29051 4.55322 7.28709 4.66092 7.28122C4.71469 7.27829 4.76178 7.27471 4.79842 7.27044C4.8167 7.26832 4.83304 7.26594 4.84664 7.26325C4.85888 7.26083 4.87346 7.25732 4.88524 7.25132C5.1026 7.14053 5.14234 6.85088 4.96512 6.68271C4.94187 6.66065 4.91889 6.63997 4.88886 6.62396C4.85841 6.60773 4.82385 6.59786 4.77824 6.59147C4.68975 6.57906 4.54645 6.57827 4.28392 6.57827C4.25417 6.57827 4.22574 6.57832 4.19856 6.57836C4.05171 6.5786 3.94139 6.57878 3.85651 6.57134C3.75519 6.56247 3.70357 6.54346 3.67278 6.5127C3.64182 6.48177 3.62219 6.4293 3.61189 6.32643C3.60326 6.24035 3.60176 6.12832 3.59977 5.97937C3.59941 5.95182 3.59902 5.92301 3.59857 5.89286L3.59834 5.87738C3.59427 5.60453 3.59213 5.46118 3.57869 5.37611C3.57155 5.33096 3.56069 5.29769 3.54223 5.26852C3.52543 5.24197 3.50365 5.22133 3.48182 5.20063C3.48081 5.19967 3.47979 5.19871 3.47878 5.19774C3.42253 5.14436 3.35849 5.11054 3.28905 5.09997C3.21959 5.0894 3.1486 5.1027 3.07947 5.13712Z" fill="#ACB2C0" stroke="#ACB2C0" stroke-width="0.1"/>
</svg>
