<svg width="8" height="8" viewBox="0 0 8 8" fill="none" xmlns="http://www.w3.org/2000/svg">
<path d="M1.57395 0.468849C1.04492 0.538427 0.633988 0.904749 0.493772 1.43063L0.458266 1.5638L0.457422 1.56358L1.57395 0.468849ZM1.57395 0.468849L1.57721 0.493635L6.58006 0.496483L6.58006 0.496483L6.45416 0.460878L6.45442 0.459941L6.44738 0.459935L4.06298 0.457622C3.40724 0.456984 2.79969 0.457905 2.34909 0.459901C2.1238 0.4609 1.9377 0.462167 1.80443 0.463644C1.7378 0.464382 1.68431 0.465173 1.64569 0.466011C1.60803 0.466828 1.58265 0.467705 1.57395 0.468849ZM5.62121 2.6045C5.27298 2.32626 4.89809 2.14416 4.49743 2.05815C4.42022 2.04158 4.25885 2.02737 4.09778 2.01989C3.93645 2.0124 3.78005 2.0119 3.71239 2.02161C3.21236 2.09337 2.78457 2.28028 2.37879 2.6045M5.62121 2.6045L2.37879 2.6045M5.62121 2.6045C5.67633 2.64855 5.74394 2.70744 5.7968 2.75611C5.82325 2.78046 5.84573 2.80201 5.861 2.81772C5.86332 2.82011 5.86543 2.82231 5.86733 2.82434C5.54909 3.08925 5.37798 3.22734 5.27195 3.28542C5.21824 3.31484 5.18597 3.32094 5.16225 3.31668C5.13838 3.31239 5.1173 3.29671 5.08758 3.26654C4.9002 3.07629 4.63818 2.92636 4.37794 2.86039L4.28398 2.83657L4.27663 2.63712C4.27133 2.49336 4.2378 2.38302 4.18802 2.3078C4.1382 2.2325 4.07087 2.19111 4 2.19111C3.92913 2.19111 3.8618 2.2325 3.81198 2.3078C3.7622 2.38302 3.72867 2.49336 3.72337 2.63712L3.71602 2.83657L3.62206 2.86039C3.36134 2.92648 3.1266 3.05965 2.92529 3.25535L2.92529 3.25535C2.88444 3.29505 2.85352 3.32246 2.83152 3.33876C2.82126 3.34637 2.81389 3.35084 2.809 3.35311C2.80832 3.35261 2.80757 3.35204 2.80673 3.35141L2.78528 3.33502L2.71198 3.27826C2.65185 3.23153 2.57218 3.16934 2.49041 3.10533C2.34516 2.99164 2.1936 2.87249 2.13296 2.82399M5.62121 2.6045L2.13296 2.82399M2.37879 2.6045C2.32383 2.64842 2.25621 2.70732 2.20331 2.75602C2.17684 2.78039 2.15432 2.80195 2.13902 2.81767C2.13682 2.81994 2.1348 2.82205 2.13296 2.82399M2.37879 2.6045L2.13296 2.82399M1.51773 1.03443L1.51773 1.03443C1.51781 1.0344 1.51772 1.03443 1.51785 1.03439L1.51821 1.03429L1.51954 1.03399L1.52412 1.03316C1.52798 1.03255 1.53303 1.03192 1.53934 1.03126C1.55195 1.02995 1.56883 1.02867 1.58983 1.02741C1.63179 1.02489 1.68934 1.02255 1.76038 1.02038C1.90241 1.01604 2.09768 1.01243 2.32854 1.00955C2.79022 1.00379 3.39382 1.00095 3.99762 1.00101C4.60143 1.00108 5.20535 1.00404 5.66768 1.0099C5.89886 1.01283 6.09452 1.01648 6.23704 1.02084C6.30832 1.02303 6.36613 1.02538 6.40837 1.02791C6.42951 1.02917 6.44655 1.03047 6.45932 1.03178C6.47289 1.03317 6.47962 1.0344 6.4816 1.03502C6.7176 1.10794 6.89406 1.28409 6.96669 1.51914C6.96739 1.52142 6.96868 1.52843 6.97013 1.5421C6.97151 1.55504 6.97286 1.57221 6.97418 1.59346C6.97682 1.63594 6.97929 1.69389 6.98158 1.76524C6.98614 1.90789 6.98996 2.10338 6.99301 2.33419C6.99913 2.79577 7.00221 3.39816 7.00225 4.00059C7.00229 4.60303 6.99929 5.2054 6.99324 5.66697C6.99021 5.89777 6.98642 6.09325 6.98187 6.23588C6.9796 6.30722 6.97714 6.36517 6.9745 6.40763C6.97318 6.42889 6.97183 6.44605 6.97046 6.45898C6.96901 6.47265 6.96772 6.47965 6.96702 6.48192C6.89375 6.71891 6.71621 6.89585 6.48011 6.96738C6.43367 6.98145 6.4002 6.98938 6.0785 6.99282C5.75784 6.99626 5.1536 6.99536 3.96857 6.9933L1.55752 6.98911L1.47034 6.95394L1.46099 6.97713L1.47034 6.95394C1.26655 6.87176 1.09706 6.68936 1.03391 6.48496L1.01003 6.49234L1.03391 6.48496C1.03318 6.48257 1.03186 6.47546 1.03039 6.46174C1.02899 6.44873 1.02761 6.4315 1.02627 6.41018C1.02358 6.36758 1.02107 6.30952 1.01874 6.23808C1.01409 6.09524 1.01021 5.89961 1.00709 5.6687C1.00085 5.20692 0.997682 4.60448 0.997611 4.002C0.997539 3.39952 1.00056 2.79709 1.00669 2.33533C1.00975 2.10442 1.01359 1.90881 1.01821 1.76598C1.02052 1.69454 1.02301 1.63648 1.02569 1.59389C1.02703 1.57258 1.0284 1.55535 1.0298 1.54235C1.03127 1.52863 1.03258 1.52152 1.03332 1.51914C1.10579 1.28457 1.27946 1.11058 1.51773 1.03443ZM3.65597 1.49184C2.92995 1.57641 2.27192 1.92191 1.69599 2.51908C1.68771 2.52766 1.6796 2.53605 1.67166 2.54426C1.59805 2.62038 1.53941 2.68102 1.50461 2.73582C1.48497 2.76676 1.47177 2.79747 1.46799 2.82969C1.46416 2.86226 1.47018 2.89438 1.48576 2.9276C1.51611 2.99229 1.58405 3.06351 1.69163 3.15661C1.78972 3.24151 1.92378 3.34702 2.09876 3.48474C2.11706 3.49914 2.1358 3.5139 2.155 3.52901C2.34423 3.67804 2.48746 3.79051 2.59841 3.87085C2.7088 3.95079 2.78961 4.00073 2.85356 4.02269C2.88597 4.03382 2.91536 4.03825 2.94291 4.03499C2.97075 4.03169 2.99489 4.02075 3.01695 4.00402C3.05933 3.97186 3.09613 3.91621 3.14007 3.84879C3.5431 3.23039 4.40017 3.18998 4.81385 3.76487C4.9027 3.88835 4.97723 3.96726 5.05133 4.00067C5.08931 4.0178 5.12712 4.02298 5.16589 4.0164C5.20419 4.00991 5.24193 3.9922 5.28063 3.96595C5.49323 3.82172 5.7991 3.58047 6.05296 3.36542C6.17994 3.25785 6.29425 3.15655 6.37762 3.07695C6.41926 3.03719 6.45353 3.00252 6.47787 2.97502C6.49 2.96131 6.50005 2.94895 6.50739 2.93835C6.5139 2.92895 6.52102 2.9172 6.52257 2.90561C6.52727 2.87057 6.53023 2.84026 6.52737 2.81132C6.52444 2.78161 6.51552 2.75436 6.49812 2.72461C6.46458 2.6673 6.39778 2.59842 6.27865 2.47994C5.51907 1.72447 4.6093 1.3808 3.65597 1.49184ZM2.80468 3.35471C2.80469 3.35469 2.80491 3.35462 2.80531 3.35457L2.80468 3.35471Z" fill="#ACB2C0" stroke="#ACB2C0" stroke-width="0.05"/>
</svg>
