<svg width="12" height="12" viewBox="0 0 12 12" fill="none" xmlns="http://www.w3.org/2000/svg">
<path d="M2.56494 10.9375L9.43994 10.9375C10.2684 10.9375 10.9399 10.2659 10.9399 9.4375L10.9399 9.0875C10.9399 9.01846 10.884 8.9625 10.8149 8.9625L1.18994 8.9625C1.12091 8.9625 1.06494 9.01846 1.06494 9.0875L1.06494 9.4375C1.06494 10.2659 1.73651 10.9375 2.56494 10.9375Z" stroke="#363942" stroke-width="0.75"/>
<path d="M1.56494 6L10.4399 6C10.7161 6 10.9399 5.77614 10.9399 5.5L10.9399 5.01875C10.9399 4.74261 10.7161 4.51875 10.4399 4.51875L1.56494 4.51875C1.2888 4.51875 1.06494 4.74261 1.06494 5.01875L1.06494 5.5C1.06494 5.77614 1.2888 6 1.56494 6Z" stroke="#363942" stroke-width="0.75"/>
<path d="M6.01021 1.0625C3.52277 1.0625 1.45768 2.33474 1.1149 4.02194C1.05992 4.29256 1.2888 4.51875 1.56494 4.51875H10.4399C10.7161 4.51875 10.945 4.29258 10.8903 4.0219C10.5498 2.33472 8.49763 1.0625 6.01021 1.0625Z" stroke="#363942" stroke-width="0.75"/>
<path d="M1.06494 7.64347C1.34303 7.30351 1.79632 7.23442 2.29932 7.23442C2.44927 7.23442 2.60206 7.29282 2.74952 7.3862C3.20804 7.67653 3.85935 7.67653 4.31786 7.3862C4.46533 7.29282 4.61812 7.23442 4.76807 7.23442C4.91801 7.23442 5.0708 7.29282 5.21827 7.3862C5.67679 7.67653 6.3281 7.67653 6.78661 7.3862C6.93408 7.29282 7.08687 7.23442 7.23682 7.23442C7.38677 7.23442 7.53955 7.29282 7.68702 7.3862C8.14554 7.67653 8.79684 7.67653 9.25536 7.3862C9.40283 7.29282 9.55562 7.23442 9.70557 7.23442C10.2086 7.23442 10.6619 7.30351 10.9399 7.64347" stroke="#363942" stroke-width="0.75" stroke-linecap="round"/>
</svg>
