<svg width="12" height="12" viewBox="0 0 12 12" fill="none" xmlns="http://www.w3.org/2000/svg">
<path d="M2.49094 6L9.50906 6C9.71338 6 9.83142 6.2318 9.71124 6.39704L6.40437 10.944C6.20469 11.2185 5.79531 11.2185 5.59563 10.944L2.28876 6.39704C2.16858 6.2318 2.28662 6 2.49094 6Z" stroke="#363942" stroke-width="0.75"/>
<path d="M9.70917 6C9.81702 5.64396 9.875 5.26625 9.875 4.875C9.875 2.7349 8.1401 1 6 1C3.8599 1 2.125 2.7349 2.125 4.875C2.125 5.26625 2.18299 5.64396 2.29083 6" stroke="#363942" stroke-width="0.75" stroke-linecap="round"/>
<path d="M2.19629 4.30426C2.44564 4.30426 2.6481 4.08324 2.81925 3.78756C3.12058 3.26699 3.7439 3.23958 4.07236 3.74348C4.27933 4.061 4.49933 4.30426 4.70054 4.30426C4.89444 4.30426 5.08045 4.07833 5.25133 3.77775C5.54859 3.25484 6.16259 3.25484 6.45985 3.77775C6.63073 4.07833 6.81674 4.30426 7.01064 4.30426C7.21185 4.30426 7.43185 4.06099 7.63882 3.74347C7.96728 3.23958 8.65287 3.23958 8.98133 3.74347C9.1883 4.06099 9.4083 4.30426 9.60951 4.30426" stroke="#363942" stroke-width="0.75" stroke-linecap="round"/>
<path d="M7.48145 6L5.00013 9.13737" stroke="#363942" stroke-width="0.75" stroke-linecap="round"/>
</svg>
