<svg width="8" height="8" viewBox="0 0 8 8" fill="none" xmlns="http://www.w3.org/2000/svg">
<path d="M7 4.66667V5.4C7 5.96005 7 6.24008 6.89101 6.45399C6.79513 6.64215 6.64215 6.79513 6.45399 6.89101C6.24008 7 5.96005 7 5.4 7H4.66667M3.33333 1H2.6C2.03995 1 1.75992 1 1.54601 1.10899C1.35785 1.20487 1.20487 1.35785 1.10899 1.54601C1 1.75992 1 2.03995 1 2.6V3.33333M5 3L7 1M7 1H5M7 1V3M3 5L1 7M1 7H3M1 7L1 5" stroke="#ACB2C0" stroke-width="0.666667" stroke-linecap="round" stroke-linejoin="round"/>
</svg>
