<svg width="12" height="12" viewBox="0 0 12 12" fill="none" xmlns="http://www.w3.org/2000/svg">
<path d="M11 10.5L1.42488 10.5C1.23426 10.5 1.11377 10.2952 1.20634 10.1286L6 1.5" stroke="#363942" stroke-width="0.75"/>
<path d="M6 1.56372C8.96598 3.12386 11 6.32754 11 10.0263C11 10.1851 10.9962 10.343 10.9888 10.5" stroke="#363942" stroke-width="0.75" stroke-linecap="round"/>
<path d="M5.31836 2.90906C7.78903 4.50033 9.4737 7.29012 9.62537 10.5" stroke="#363942" stroke-width="0.75" stroke-linecap="round"/>
<path d="M7.66869 7.27458C8.0823 7.64887 8.12507 8.28943 7.75475 8.699C7.38442 9.10857 6.74096 9.13238 6.32734 8.75808C5.91372 8.38379 5.90147 7.7666 6.27179 7.35702C6.64212 6.94745 7.25507 6.90028 7.66869 7.27458Z" stroke="#363942" stroke-width="0.625"/>
<path d="M4.22876 8.27732C4.51077 8.53252 4.53993 8.96926 4.28744 9.24851C4.03495 9.52777 3.59622 9.544 3.31421 9.2888C3.0322 9.0336 3.02384 8.61278 3.27633 8.33353C3.52883 8.05428 3.94675 8.02211 4.22876 8.27732Z" stroke="#363942" stroke-width="0.625"/>
<path d="M5.91042 4.19872C6.19243 4.45392 6.22159 4.89067 5.9691 5.16992C5.71661 5.44917 5.27788 5.46541 4.99587 5.2102C4.71386 4.955 4.7055 4.53419 4.958 4.25494C5.21049 3.97568 5.62841 3.94352 5.91042 4.19872Z" stroke="#363942" stroke-width="0.625"/>
</svg>
