<svg width="12" height="12" viewBox="0 0 12 12" fill="none" xmlns="http://www.w3.org/2000/svg">
<path d="M10.6309 6.12501L5.99602 6.12501H1.36844C1.30189 6.12501 1.24753 6.17637 1.24747 6.24291C1.24679 6.99809 1.45103 11.125 5.99612 11.125C10.5409 11.125 10.7514 6.99882 10.7519 6.24311C10.7519 6.1765 10.6975 6.12501 10.6309 6.12501Z" stroke="#363942" stroke-width="0.75" stroke-linecap="round"/>
<path d="M1.55518 7.625L10.5552 7.625" stroke="#363942" stroke-width="0.75" stroke-linecap="round"/>
<path d="M1.5 6.125C2.38445 4.69449 3.35294 2.625 6 2.625C8.64706 2.625 9.61555 4.69449 10.5 6.125" stroke="#363942" stroke-width="0.75" stroke-linecap="round" stroke-linejoin="round"/>
<path d="M6 5.25C5.79289 5.25 5.625 5.13807 5.625 5C5.625 4.86193 5.79289 4.75 6 4.75C6.20711 4.75 6.375 4.86193 6.375 5C6.375 5.13807 6.20711 5.25 6 5.25Z" fill="#363942"/>
<path d="M6.875 4.375C7.08211 4.375 7.25 4.20711 7.25 4C7.25 3.79289 7.08211 3.625 6.875 3.625C6.66789 3.625 6.5 3.79289 6.5 4C6.5 4.20711 6.66789 4.375 6.875 4.375Z" fill="#363942"/>
<path d="M5.125 4.375C4.91789 4.375 4.75 4.20711 4.75 4C4.75 3.79289 4.91789 3.625 5.125 3.625C5.33211 3.625 5.5 3.79289 5.5 4C5.5 4.20711 5.33211 4.375 5.125 4.375Z" fill="#363942"/>
<path d="M8.375 4.875C8.58211 4.875 8.75 4.70711 8.75 4.5C8.75 4.29289 8.58211 4.125 8.375 4.125C8.16789 4.125 8 4.29289 8 4.5C8 4.70711 8.16789 4.875 8.375 4.875Z" fill="#363942"/>
<path d="M3.625 4.875C3.41789 4.875 3.25 4.70711 3.25 4.5C3.25 4.29289 3.41789 4.125 3.625 4.125C3.83211 4.125 4 4.29289 4 4.5C4 4.70711 3.83211 4.875 3.625 4.875Z" fill="#363942"/>
<path d="M7.25 2.75L9 0.875" stroke="#363942" stroke-width="0.75" stroke-linecap="round"/>
<path d="M8.625 3.375L10.625 1.125" stroke="#363942" stroke-width="0.75" stroke-linecap="round"/>
</svg>
