<svg width="8" height="8" viewBox="0 0 8 8" fill="none" xmlns="http://www.w3.org/2000/svg">
<g clip-path="url(#clip0_157_867)">
<path d="M5.33342 2.99996V1.99996C5.33342 1.26358 4.73646 0.666626 4.00008 0.666626C3.2637 0.666626 2.66675 1.26358 2.66675 1.99996V2.99996M1.19742 3.45061L0.997417 5.58395C0.940551 6.19051 0.912118 6.4938 1.01277 6.72805C1.10118 6.93384 1.25612 7.10398 1.45276 7.21122C1.67659 7.33329 1.9812 7.33329 2.59043 7.33329H5.40973C6.01896 7.33329 6.32357 7.33329 6.54741 7.21122C6.74404 7.10398 6.89898 6.93384 6.9874 6.72805C7.08805 6.4938 7.05961 6.19051 7.00275 5.58395L6.80275 3.45061C6.75473 2.93841 6.73072 2.6823 6.61553 2.48868C6.51408 2.31815 6.36419 2.18166 6.18494 2.09657C5.98141 1.99996 5.72419 1.99996 5.20973 1.99996L2.79043 1.99996C2.27598 1.99996 2.01875 1.99996 1.81522 2.09657C1.63597 2.18166 1.48608 2.31815 1.38464 2.48868C1.26945 2.6823 1.24544 2.93841 1.19742 3.45061Z" stroke="white" stroke-width="0.666667" stroke-linecap="round" stroke-linejoin="round"/>
</g>
<defs>
<clipPath id="clip0_157_867">
<rect width="8" height="8" fill="white"/>
</clipPath>
</defs>
</svg>
