<svg width="8" height="8" viewBox="0 0 8 8" fill="none" xmlns="http://www.w3.org/2000/svg">
<g clip-path="url(#clip0_38_2066)">
<path d="M5.33333 2.00008V1.73341C5.33333 1.36005 5.33333 1.17336 5.26067 1.03075C5.19676 0.905313 5.09477 0.803326 4.96933 0.73941C4.82672 0.666748 4.64004 0.666748 4.26667 0.666748H3.73333C3.35996 0.666748 3.17328 0.666748 3.03067 0.73941C2.90523 0.803326 2.80324 0.905313 2.73933 1.03075C2.66667 1.17336 2.66667 1.36005 2.66667 1.73341V2.00008M3.33333 3.83341V5.50008M4.66667 3.83341V5.50008M1 2.00008H7M6.33333 2.00008V5.73341C6.33333 6.29347 6.33333 6.57349 6.22434 6.78741C6.12847 6.97557 5.97549 7.12855 5.78732 7.22442C5.57341 7.33341 5.29339 7.33341 4.73333 7.33341H3.26667C2.70661 7.33341 2.42659 7.33341 2.21268 7.22442C2.02451 7.12855 1.87153 6.97557 1.77566 6.78741C1.66667 6.57349 1.66667 6.29347 1.66667 5.73341V2.00008" stroke="black" stroke-width="0.666667" stroke-linecap="round" stroke-linejoin="round"/>
</g>
<defs>
<clipPath id="clip0_38_2066">
<rect width="8" height="8" fill="white"/>
</clipPath>
</defs>
</svg>
