<svg width="10" height="10" viewBox="0 0 10 10" fill="none" xmlns="http://www.w3.org/2000/svg">
<path d="M0.95 2.22368L0.951688 2.22413L0.992064 2.0727C1.1537 1.46649 1.62793 1.04347 2.23842 0.963178L0.95 2.22368ZM0.95 2.22368V2.23701M0.95 2.22368V2.23701M0.95 2.23701V5.00125V7.76549H0.948253M0.95 2.23701L0.948253 7.76549M0.948253 7.76549L0.951688 7.77837M0.948253 7.76549L0.951688 7.77837M0.951688 7.77837L0.992064 7.9298C1.1385 8.47904 1.52115 8.86157 2.07055 9.00795L2.22203 9.04831L2.22158 9.05M0.951688 7.77837L2.22158 9.05M2.22158 9.05H2.2349M2.22158 9.05H2.2349M2.2349 9.05H5H7.7651V9.05174M2.2349 9.05L7.7651 9.05174M7.7651 9.05174L7.77797 9.04831M7.7651 9.05174L7.77797 9.04831M7.77797 9.04831L7.92946 9.00795C8.47885 8.86157 8.8615 8.47904 9.00794 7.9298L9.04831 7.77837L9.05 7.77882M7.77797 9.04831L9.05 7.77882M9.05 7.77882V7.76549M9.05 7.77882V7.76549M9.05 7.76549V5.00125V2.23701H9.05175M9.05 7.76549L9.05175 2.23701M9.05175 2.23701L9.04831 2.22413L9.05175 2.23701ZM7.79713 0.952871L7.7966 0.954744L7.93978 0.995232L7.93978 0.995233L7.92617 1.04335L7.79713 0.952871ZM7.79713 0.952871L7.78305 0.952857M7.79713 0.952871L7.78305 0.952857M7.78305 0.952857L5.07164 0.950227M7.78305 0.952857L5.07164 0.950227M5.07164 0.950227C4.32593 0.949503 3.63502 0.950549 3.12258 0.95282M5.07164 0.950227L3.12258 0.95282M3.12258 0.95282C2.86637 0.953955 2.6547 0.955396 2.50307 0.957076M3.12258 0.95282L2.50307 0.957076M2.50307 0.957076C2.42728 0.957916 2.36636 0.958817 2.32234 0.959772M2.50307 0.957076L2.32234 0.959772M2.32234 0.959772C2.28023 0.960685 2.24979 0.961682 2.23842 0.963178L2.32234 0.959772ZM6.83009 3.42997C6.43649 3.11547 6.01319 2.90996 5.56112 2.81293C5.47528 2.79451 5.29341 2.77838 5.11019 2.76988C4.92645 2.76135 4.75061 2.76093 4.67601 2.77163C4.11132 2.85267 3.62843 3.0636 3.16992 3.42997C3.16992 3.42997 3.16991 3.42997 3.16991 3.42997M6.83009 3.42997L3.1387 3.39091L3.16991 3.42997M6.83009 3.42997C6.89229 3.47967 6.96878 3.54629 7.02861 3.60138M6.83009 3.42997L7.02861 3.60138M3.16991 3.42997C3.1079 3.47953 3.0314 3.54616 2.97151 3.60128C2.94682 3.62401 2.92532 3.64445 2.909 3.66071M3.16991 3.42997L2.909 3.66071M2.909 3.66071C2.98688 3.72266 3.1447 3.84669 3.29667 3.96564C3.38965 4.03842 3.48022 4.10913 3.54857 4.16225L3.63184 4.22672L3.64732 4.23855M2.909 3.66071L3.63583 4.24516C3.63791 4.24427 3.64165 4.24228 3.64732 4.23855M3.64732 4.23855C3.65043 4.23651 3.65412 4.23394 3.65843 4.23075C3.68225 4.2131 3.71656 4.18275 3.76286 4.13775L3.66238 4.25012C3.66292 4.25044 3.66324 4.25064 3.66325 4.25063C3.66328 4.25059 3.66137 4.24924 3.65608 4.24524L3.64732 4.23855ZM7.02861 3.60138C7.05362 3.62442 7.07534 3.64509 7.09171 3.66144M7.02861 3.60138L7.09171 3.66144M7.09171 3.66144C6.74053 3.95359 6.55235 4.10478 6.43603 4.1685C6.37637 4.20118 6.34511 4.20527 6.32547 4.20174C6.30552 4.19815 6.28567 4.18489 6.25211 4.15081C6.03624 3.93164 5.7348 3.75916 5.43507 3.68318L5.34389 3.66007L5.33612 3.44941C5.33 3.28324 5.2912 3.15357 5.2318 3.06382C5.1723 2.9739 5.0897 2.92146 5 2.92146C4.9103 2.92146 4.8277 2.9739 4.7682 3.06382C4.7088 3.15357 4.67 3.28324 4.66388 3.44941L4.65611 3.66007L4.56493 3.68318L7.09171 3.66144ZM2.13147 8.33906L2.13147 8.33906C1.90561 8.24797 1.71762 8.04551 1.64776 7.81948C1.64777 7.81949 1.64777 7.8195 1.64777 7.8195C1.64778 7.81949 1.64737 7.81793 1.64673 7.81397C1.64607 7.80982 1.64533 7.80423 1.64456 7.79705C1.64302 7.78271 1.64148 7.76347 1.63996 7.73937C1.63692 7.69125 1.63408 7.62548 1.63144 7.54432C1.62616 7.38209 1.62174 7.15979 1.61819 6.89726C1.6111 6.37228 1.6075 5.68733 1.60742 5.00227C1.60733 4.31722 1.61077 3.63228 1.61774 3.10731C1.62122 2.84479 1.62559 2.6225 1.63083 2.46029C1.63345 2.37913 1.63628 2.31337 1.6393 2.26526C1.64082 2.24116 1.64236 2.22192 1.64389 2.20759C1.64466 2.20041 1.64539 2.19483 1.64606 2.19068C1.64669 2.18672 1.6471 2.18517 1.64709 2.18516C1.64709 2.18516 1.64708 2.1852 1.64706 2.18527C1.72734 1.9254 1.9195 1.73275 2.18387 1.64826L2.18387 1.64826C2.18377 1.64829 2.18388 1.64827 2.18423 1.6482C2.18572 1.64793 2.19149 1.64687 2.20409 1.64557C2.21799 1.64413 2.23684 1.64268 2.26058 1.64126C2.30798 1.63842 2.37317 1.63576 2.45388 1.63329C2.6152 1.62837 2.83709 1.62427 3.09957 1.62099C3.62445 1.61445 4.31073 1.61122 4.9973 1.61129C5.68386 1.61136 6.3705 1.61473 6.89612 1.62139C7.15896 1.62472 7.38131 1.62887 7.54318 1.63383C7.62416 1.63631 7.68966 1.63898 7.73739 1.64183C7.76129 1.64326 7.78031 1.64471 7.7944 1.64616C7.81008 1.64777 7.81566 1.64902 7.81557 1.64899C8.07712 1.72981 8.27241 1.92476 8.3529 2.18514C8.3529 2.18513 8.3529 2.18513 8.3529 2.18513C8.35289 2.18513 8.35328 2.18665 8.35389 2.19049C8.35455 2.1946 8.35527 2.20015 8.35603 2.20729C8.35754 2.22155 8.35906 2.24073 8.36055 2.26475C8.36354 2.31274 8.36633 2.37839 8.36893 2.45944C8.37411 2.62145 8.37845 2.8436 8.38192 3.10602C8.38888 3.63078 8.39238 4.31568 8.39243 5.00068C8.39247 5.68567 8.38906 6.37056 8.38218 6.8953C8.37874 7.15771 8.37443 7.37984 8.36927 7.54183C8.36668 7.62288 8.36389 7.68852 8.36091 7.73649C8.35942 7.76052 8.35791 7.77969 8.3564 7.79395C8.35564 7.80108 8.35492 7.80662 8.35427 7.81073C8.35366 7.81456 8.35327 7.81607 8.35328 7.81608C8.35328 7.81608 8.35328 7.81607 8.35329 7.81605C8.27206 8.07867 8.07553 8.27446 7.81399 8.3537C7.76468 8.36864 7.72989 8.37778 7.36332 8.38171C6.99887 8.38562 6.31195 8.38459 4.96429 8.38225L2.22675 8.37749L2.13147 8.33906ZM4.6063 2.12643C3.77506 2.22326 3.02236 2.61886 2.36448 3.301C2.35497 3.31086 2.34562 3.32053 2.33645 3.33C2.25335 3.41591 2.185 3.48657 2.14417 3.55088C2.12076 3.58774 2.10411 3.62576 2.09931 3.66667C2.09442 3.70828 2.10225 3.74884 2.12141 3.78969C2.15811 3.8679 2.23879 3.95155 2.36092 4.05726C2.47287 4.15414 2.62574 4.27445 2.82453 4.43091C2.84538 4.44733 2.86674 4.46414 2.88862 4.48137C3.10367 4.65073 3.26694 4.77893 3.39353 4.87061C3.51903 4.96148 3.61323 5.02008 3.68932 5.04621C3.72824 5.05957 3.76502 5.06541 3.80046 5.06121C3.83651 5.05694 3.86752 5.04274 3.89517 5.02175C3.94701 4.98242 3.99098 4.91537 4.04021 4.83983C4.49098 4.14819 5.44717 4.10487 5.90796 4.74523C6.00903 4.88569 6.09665 4.97985 6.18665 5.02043C6.2335 5.04156 6.28083 5.04816 6.3294 5.03992C6.377 5.03185 6.42283 5.01003 6.46837 4.97913C6.71104 4.8145 7.05953 4.5396 7.34845 4.29485C7.49302 4.17238 7.62336 4.05689 7.7186 3.96595C7.76612 3.92058 7.80558 3.88068 7.83385 3.84875C7.84792 3.83285 7.85997 3.81808 7.86901 3.80503C7.87638 3.79438 7.88739 3.77721 7.88991 3.75839C7.89528 3.71842 7.89897 3.68178 7.89546 3.64617C7.89179 3.60903 7.88057 3.57508 7.85934 3.5388C7.81944 3.47062 7.74096 3.39003 7.60637 3.25618C6.73858 2.39309 5.69773 1.99931 4.6063 2.12643ZM3.63409 4.24578C3.63411 4.24573 3.63464 4.24551 3.63559 4.24526L3.63409 4.24578Z" fill="#ACB2C0" stroke="#ACB2C0" stroke-width="0.1"/>
</svg>
